<?xml version="1.0" standalone="no"?>
<!DOCTYPE svg PUBLIC "-//W3C//DTD SVG 20010904//EN"
 "http://www.w3.org/TR/2001/REC-SVG-20010904/DTD/svg10.dtd">
<svg version="1.0" xmlns="http://www.w3.org/2000/svg"
 width="300.000000pt" height="225.000000pt" viewBox="0 0 300.000000 225.000000"
 preserveAspectRatio="xMidYMid meet">
<metadata>
Created by potrace 1.10, written by Peter Selinger 2001-2011
</metadata>
<g transform="translate(0.000000,225.000000) scale(0.100000,-0.100000)"
fill="#000000" stroke="none">
<path d="M1498 1593 c23 -2 59 -2 80 0 20 2 1 4 -43 4 -44 0 -61 -2 -37 -4z"/>
<path d="M1395 1570 c-3 -5 -1 -18 5 -29 5 -11 10 -47 10 -80 l0 -61 -31 0
-30 0 6 -55 c5 -38 4 -55 -4 -55 -6 0 -11 -4 -11 -10 0 -6 63 -10 170 -10 107
0 170 4 170 10 0 6 -5 10 -11 10 -9 0 -10 28 -6 100 l5 100 -29 0 c-31 0 -40
25 -18 47 7 7 9 19 6 27 -5 13 -26 16 -116 16 -61 0 -113 -4 -116 -10z m85
-10 c0 -5 -16 -10 -35 -10 -19 0 -35 5 -35 10 0 6 16 10 35 10 19 0 35 -4 35
-10z m130 0 c0 -5 -16 -10 -35 -10 -19 0 -35 5 -35 10 0 6 16 10 35 10 19 0
35 -4 35 -10z m-130 -45 c0 -10 10 -15 30 -15 20 0 30 5 30 15 0 10 10 15 30
15 23 0 30 -4 30 -20 0 -18 -7 -20 -70 -20 -61 0 -70 -2 -70 -18 0 -10 3 -22
7 -26 4 -3 8 -15 10 -26 2 -16 -3 -20 -27 -20 l-30 0 0 65 0 65 30 0 c20 0 30
-5 30 -15z m60 -45 c0 -5 -13 -10 -30 -10 -16 0 -30 5 -30 10 0 6 14 10 30 10
17 0 30 -4 30 -10z m115 0 c4 -6 -7 -10 -24 -10 -17 0 -31 5 -31 10 0 6 11 10
24 10 14 0 28 -4 31 -10z m-115 -45 c0 -10 10 -15 30 -15 20 0 30 5 30 15 0 8
9 15 20 15 18 0 20 -7 20 -65 0 -45 -4 -65 -12 -65 -9 0 -8 -4 2 -10 13 -8 12
-10 -2 -10 -10 0 -18 6 -19 13 0 10 -2 10 -6 0 -2 -7 -16 -13 -30 -13 -25 0
-26 1 -19 55 l6 55 -35 0 c-28 0 -35 4 -35 20 0 15 7 20 25 20 16 0 25 -6 25
-15z m-115 -45 c4 -6 -8 -10 -30 -10 -22 0 -34 4 -30 10 3 6 17 10 30 10 13 0
27 -4 30 -10z m115 0 c0 -5 -13 -10 -30 -10 -16 0 -30 5 -30 10 0 6 14 10 30
10 17 0 30 -4 30 -10z m-120 -45 c0 -10 10 -15 30 -15 20 0 30 5 30 15 0 9 9
15 25 15 21 0 25 -5 25 -30 l0 -30 -75 0 -75 0 0 30 c0 23 4 30 20 30 11 0 20
-7 20 -15z"/>
<path d="M1380 1475 c0 -25 5 -45 10 -45 6 0 10 20 10 45 0 25 -4 45 -10 45
-5 0 -10 -20 -10 -45z"/>
<path d="M400 1170 c0 -7 372 -10 1095 -10 723 0 1095 3 1095 10 0 7 -372 10
-1095 10 -723 0 -1095 -3 -1095 -10z"/>
<path d="M902 1020 c-40 -24 -62 -73 -62 -135 0 -84 43 -135 115 -135 74 0
115 51 115 144 0 72 -12 102 -52 126 -42 25 -74 25 -116 0z m116 -25 c44 -55
35 -175 -15 -214 -34 -28 -66 -26 -100 3 -26 23 -28 29 -28 104 0 71 3 83 24
106 34 36 92 36 119 1z"/>
<path d="M480 1010 c-25 -25 -26 -72 -1 -94 10 -9 35 -21 54 -27 20 -5 43 -17
52 -25 32 -32 11 -82 -42 -98 -27 -9 -80 17 -86 41 -3 12 -5 9 -6 -8 -1 -19 6
-29 24 -37 86 -39 177 22 145 98 -9 21 -25 34 -59 46 -62 23 -71 32 -71 65 0
51 84 69 105 22 14 -32 22 -28 17 7 -4 29 -6 30 -58 30 -41 0 -59 -5 -74 -20z"/>
<path d="M641 998 c1 -30 2 -31 8 -8 5 19 14 26 39 28 l32 3 0 -130 c0 -115
-2 -130 -17 -134 -10 -3 5 -5 32 -5 28 0 42 2 33 5 -16 4 -18 19 -18 134 l0
129 34 0 c30 0 35 -4 39 -27 4 -26 4 -26 6 5 l1 32 -95 0 -95 0 1 -32z"/>
<path d="M1158 1010 c-38 -29 -51 -71 -46 -146 4 -58 8 -70 32 -90 22 -19 39
-24 86 -24 32 0 61 4 65 10 3 5 -14 7 -44 3 -65 -7 -96 12 -111 68 -25 91 19
189 85 189 49 0 65 -9 65 -36 0 -13 5 -24 10 -24 9 0 5 42 -7 63 -2 4 -28 7
-57 7 -38 0 -61 -6 -78 -20z"/>
<path d="M1343 1023 c15 -4 17 -19 17 -133 0 -114 -2 -129 -17 -133 -10 -3 5
-5 32 -5 28 0 42 2 33 5 -14 3 -18 15 -18 53 0 27 -3 55 -6 64 -13 35 14 12
64 -54 44 -58 58 -70 80 -69 15 1 20 3 12 6 -8 2 -41 38 -73 79 l-59 74 47 53
c26 28 57 55 69 59 14 4 6 6 -24 7 -25 0 -40 -3 -33 -7 11 -7 -26 -62 -76
-115 -4 -4 -6 18 -3 50 3 32 10 61 16 65 6 4 -9 7 -34 7 -25 -1 -37 -3 -27 -6z"/>
<path d="M1573 1024 c15 -5 17 -20 17 -134 0 -114 -2 -129 -17 -133 -10 -3 5
-5 32 -4 28 0 38 2 23 4 l-28 4 0 120 c0 65 2 119 4 119 2 0 36 -56 76 -125
39 -69 78 -125 86 -125 11 0 14 25 14 134 0 120 2 135 18 139 9 3 -3 5 -28 4
-25 0 -35 -2 -22 -4 21 -4 22 -8 22 -125 0 -67 -2 -119 -5 -116 -3 3 -36 59
-74 124 -65 113 -70 119 -102 121 -19 1 -26 -1 -16 -3z"/>
<path d="M1843 1023 c15 -4 17 -19 17 -133 0 -114 -2 -129 -17 -133 -10 -3 26
-5 80 -6 l97 -1 -1 43 c-1 43 -3 42 -13 -5 -6 -26 -10 -28 -61 -28 l-55 0 0
63 0 62 45 -3 c25 -2 45 -8 45 -13 0 -5 5 -9 10 -9 6 0 10 16 10 35 0 19 -4
35 -10 35 -5 0 -10 -7 -10 -15 0 -11 -12 -15 -45 -15 l-45 0 0 60 0 60 48 0
c43 0 49 -3 59 -27 l11 -28 1 33 1 32 -92 -1 c-51 -1 -85 -3 -75 -6z"/>
<path d="M2058 1013 c10 -10 33 -42 50 -70 l32 -53 -36 -64 c-19 -36 -43 -67
-52 -69 -9 -3 3 -5 28 -5 25 0 37 2 28 5 -23 6 -23 2 9 68 l27 55 33 -57 c29
-52 31 -59 15 -65 -9 -4 5 -7 33 -7 29 0 43 3 32 7 -9 4 -35 36 -56 72 l-39
64 31 56 c16 30 37 61 45 68 13 10 9 12 -24 11 -21 -1 -31 -3 -21 -6 9 -2 17
-7 17 -9 0 -9 -51 -106 -55 -102 -1 1 -17 26 -33 55 -27 45 -29 52 -14 56 9 3
-3 5 -27 6 -42 1 -43 0 -23 -16z"/>
<path d="M2298 1023 c9 -3 12 -40 12 -133 0 -93 -3 -130 -12 -133 -7 -3 7 -5
32 -5 25 0 37 2 28 5 -16 4 -18 19 -18 133 0 114 2 129 18 133 9 3 -3 5 -28 5
-25 0 -39 -2 -32 -5z"/>
<path d="M2430 1010 c-25 -25 -26 -72 -2 -93 10 -10 40 -24 65 -33 72 -24 78
-81 13 -112 -34 -17 -83 0 -96 32 -8 20 -9 19 -9 -5 -1 -30 31 -49 85 -49 40
0 94 45 94 78 0 31 -38 71 -81 84 -46 13 -69 40 -62 69 12 45 95 50 113 6 8
-20 9 -19 9 11 l1 32 -55 0 c-42 0 -60 -5 -75 -20z"/>
</g>
</svg>
